<svg width="25" height="24" viewBox="0 0 25 24" fill="none" xmlns="http://www.w3.org/2000/svg">
<g id="&#208;&#190;&#208;&#189;&#208;&#187;&#208;&#176;&#208;&#185;&#208;&#189;">
<path id="Vector" d="M6.13608 18.3637C5.30034 17.528 4.63739 16.5359 4.18509 15.4439C3.7328 14.352 3.5 13.1816 3.5 11.9997C3.5 10.8178 3.7328 9.6475 4.18509 8.55557C4.63739 7.46363 5.30034 6.47147 6.13608 5.63574M18.8641 5.63574C19.6998 6.47147 20.3628 7.46363 20.8151 8.55557C21.2674 9.6475 21.5002 10.8178 21.5002 11.9997C21.5002 13.1816 21.2674 14.352 20.8151 15.4439C20.3628 16.5359 19.6998 17.528 18.8641 18.3637M8.96408 15.5347C8.02672 14.5971 7.50015 13.3256 7.50015 11.9997C7.50015 10.6739 8.02672 9.40238 8.96408 8.46474M16.0361 8.46474C16.9734 9.40238 17.5 10.6739 17.5 11.9997C17.5 13.3256 16.9734 14.5971 16.0361 15.5347M13.5001 11.9997C13.5001 12.265 13.3947 12.5193 13.2072 12.7068C13.0196 12.8944 12.7653 12.9997 12.5001 12.9997C12.2349 12.9997 11.9805 12.8944 11.793 12.7068C11.6054 12.5193 11.5001 12.265 11.5001 11.9997C11.5001 11.7345 11.6054 11.4802 11.793 11.2926C11.9805 11.1051 12.2349 10.9997 12.5001 10.9997C12.7653 10.9997 13.0196 11.1051 13.2072 11.2926C13.3947 11.4802 13.5001 11.7345 13.5001 11.9997Z" stroke="white" stroke-width="1.5" stroke-linecap="round" stroke-linejoin="round"/>
</g>
</svg>
