<svg width="19" height="18" viewBox="0 0 19 18" fill="none" xmlns="http://www.w3.org/2000/svg">
<path id="Vector 10" d="M1.5 6L0.969669 6.53033L0.439339 6L0.969669 5.46967L1.5 6ZM6.5 17.75C6.08579 17.75 5.75 17.4142 5.75 17C5.75 16.5858 6.08579 16.25 6.5 16.25L6.5 17.75ZM5.96967 11.5303L0.969669 6.53033L2.03033 5.46967L7.03033 10.4697L5.96967 11.5303ZM0.969669 5.46967L5.96967 0.469669L7.03033 1.53033L2.03033 6.53033L0.969669 5.46967ZM1.5 5.25L12 5.25L12 6.75L1.5 6.75L1.5 5.25ZM12 17.75L6.5 17.75L6.5 16.25L12 16.25L12 17.75ZM18.25 11.5C18.25 14.9518 15.4518 17.75 12 17.75L12 16.25C14.6234 16.25 16.75 14.1234 16.75 11.5L18.25 11.5ZM12 5.25C15.4518 5.25 18.25 8.04822 18.25 11.5L16.75 11.5C16.75 8.87665 14.6234 6.75 12 6.75L12 5.25Z" fill="#85868B"/>
</svg>
